# xmcd
#
# Track frame offsets: 
#        150
#        17084
#        31483
#        46906
#        62260
#        81360
#        98457
#        117081
#        135116
#        148552
#
# Disc length: 2200 seconds
#
# Revision: 0
# Processed by: cddbd v1.5.2PL0 Copyright (c) Steve Scherf et al.
# Submitted via: ExactAudioCopy v0.95b4
#
DISCID=7008960a
DTITLE=วี จิราพร - รอน้องอีกนิด
DYEAR=2006
DGENRE=Country
TTITLE0=สาวฉะเชิงเทรา
TTITLE1=รอน้องอีกนิด
TTITLE2=รักฉันต้องสัญญา
TTITLE3=ขอพึ่งพระภูมิ
TTITLE4=ศิลปินคอซอง
TTITLE5=สาวไร่ส้ม
TTITLE6=กลับไปหาป้าเหอะ
TTITLE7=ไม่สวยก็รวยได้
TTITLE8=สวยเอง
TTITLE9=รักหนุ่มรุ่นพี่
EXTD=
EXTT0=
EXTT1=
EXTT2=
EXTT3=
EXTT4=
EXTT5=
EXTT6=
EXTT7=
EXTT8=
EXTT9=
PLAYORDER=
